<svg width="57" height="57" viewBox="0 0 57 57" fill="none" xmlns="http://www.w3.org/2000/svg">
<path d="M9.50001 28.5V52.25L47.5 52.25L47.5 28.5M28.5 52.25L28.5 16.625M28.5 16.625L39.1875 16.625C40.7622 16.625 42.2725 15.9994 43.3859 14.8859C44.4994 13.7724 45.125 12.2622 45.125 10.6875C45.125 9.11278 44.4994 7.60255 43.3859 6.48905C42.2725 5.37556 40.7622 4.75 39.1875 4.75C30.875 4.75 28.5 16.625 28.5 16.625ZM28.5 16.625L17.8125 16.625C16.2378 16.625 14.7276 15.9994 13.6141 14.8859C12.5006 13.7724 11.875 12.2622 11.875 10.6875C11.875 9.11278 12.5006 7.60255 13.6141 6.48905C14.7276 5.37556 16.2378 4.75 17.8125 4.75C26.125 4.75 28.5 16.625 28.5 16.625ZM52.25 16.625L4.75001 16.625L4.75001 28.5L52.25 28.5L52.25 16.625Z" stroke="black" stroke-width="5" stroke-linecap="round" stroke-linejoin="round"/>
</svg>
